<svg width="32" height="27" viewBox="0 0 32 27" fill="none" xmlns="http://www.w3.org/2000/svg">
<path d="M31.6667 3.88603C30.5059 4.40046 29.2746 4.73789 28.0138 4.88707C29.3425 4.09293 30.3365 2.84219 30.8103 1.36857C29.5617 2.10945 28.1957 2.63148 26.7712 2.91211C26.1764 2.27712 25.4573 1.77117 24.6587 1.42565C23.8602 1.08014 22.9991 0.902434 22.129 0.90357C18.0228 0.90357 15.0054 4.73465 15.9329 8.71169C13.4043 8.58512 10.9306 7.92817 8.67235 6.78349C6.41414 5.6388 4.42192 4.03199 2.82503 2.06736C2.01191 3.46758 1.76272 5.12497 2.12816 6.70239C2.4936 8.2798 3.44622 9.65877 4.79224 10.5588C3.78282 10.5269 2.79565 10.2541 1.91311 9.76311C1.84336 12.7094 3.95524 15.4658 7.01391 16.0794C6.0771 16.3338 5.09457 16.3709 4.14124 16.1879C4.54748 17.4516 5.33865 18.5567 6.40403 19.3486C7.46941 20.1404 8.7557 20.5794 10.0829 20.6041C7.41716 22.6951 4.03054 23.6428 0.666656 23.2391C3.57486 25.1076 6.95944 26.0994 10.4162 26.0962C22.2246 26.0962 28.896 16.1233 28.493 7.17849C29.7379 6.27797 30.8125 5.1631 31.6667 3.88603Z" fill="white"/>
</svg>
