<svg width="32" height="31" viewBox="0 0 32 31" fill="none" xmlns="http://www.w3.org/2000/svg">
<path d="M15.8333 2.79387C19.9718 2.79387 20.4626 2.80938 22.0979 2.88429C26.2984 3.07546 28.2604 5.0685 28.4516 9.238C28.5265 10.872 28.5407 11.3628 28.5407 15.5013C28.5407 19.6411 28.5252 20.1306 28.4516 21.7646C28.2591 25.9302 26.3023 27.9271 22.0979 28.1183C20.4626 28.1932 19.9744 28.2087 15.8333 28.2087C11.6948 28.2087 11.204 28.1932 9.57002 28.1183C5.35919 27.9258 3.40748 25.9237 3.21631 21.7633C3.1414 20.1293 3.1259 19.6398 3.1259 15.5C3.1259 11.3615 3.14269 10.872 3.21631 9.23671C3.40877 5.0685 5.36565 3.07417 9.57002 2.883C11.2053 2.80938 11.6948 2.79387 15.8333 2.79387ZM15.8333 0C11.6238 0 11.0968 0.0180833 9.44344 0.093C3.81435 0.351333 0.685938 3.47458 0.427605 9.10883C0.351396 10.7635 0.333313 11.2905 0.333313 15.5C0.333313 19.7095 0.351396 20.2378 0.426313 21.8912C0.684646 27.5202 3.8079 30.6487 9.44215 30.907C11.0968 30.9819 11.6238 31 15.8333 31C20.0429 31 20.5711 30.9819 22.2245 30.907C27.8484 30.6487 30.9846 27.5254 31.239 21.8912C31.3152 20.2378 31.3333 19.7095 31.3333 15.5C31.3333 11.2905 31.3152 10.7635 31.2403 9.11012C30.9871 3.48621 27.86 0.352625 22.2258 0.0942917C20.5711 0.0180833 20.0429 0 15.8333 0ZM15.8333 7.54075C14.7881 7.54075 13.7531 7.74662 12.7874 8.14661C11.8218 8.5466 10.9444 9.13288 10.2053 9.87196C9.46619 10.611 8.87991 11.4885 8.47992 12.4541C8.07993 13.4198 7.87406 14.4548 7.87406 15.5C7.87406 16.5452 8.07993 17.5802 8.47992 18.5459C8.87991 19.5115 9.46619 20.389 10.2053 21.128C10.9444 21.8671 11.8218 22.4534 12.7874 22.8534C13.7531 23.2534 14.7881 23.4592 15.8333 23.4592C17.9442 23.4592 19.9687 22.6207 21.4614 21.128C22.954 19.6354 23.7926 17.6109 23.7926 15.5C23.7926 13.3891 22.954 11.3646 21.4614 9.87196C19.9687 8.37931 17.9442 7.54075 15.8333 7.54075ZM15.8333 20.6667C14.463 20.6667 13.1489 20.1223 12.1799 19.1534C11.211 18.1844 10.6666 16.8703 10.6666 15.5C10.6666 14.1297 11.211 12.8156 12.1799 11.8466C13.1489 10.8777 14.463 10.3333 15.8333 10.3333C17.2036 10.3333 18.5178 10.8777 19.4867 11.8466C20.4556 12.8156 21 14.1297 21 15.5C21 16.8703 20.4556 18.1844 19.4867 19.1534C18.5178 20.1223 17.2036 20.6667 15.8333 20.6667ZM24.1077 5.36688C23.8634 5.36688 23.6214 5.415 23.3957 5.50851C23.1699 5.60201 22.9648 5.73907 22.7921 5.91185C22.6193 6.08462 22.4822 6.28974 22.3887 6.51548C22.2952 6.74123 22.2471 6.98318 22.2471 7.22752C22.2471 7.47186 22.2952 7.71382 22.3887 7.93956C22.4822 8.1653 22.6193 8.37042 22.7921 8.5432C22.9648 8.71597 23.1699 8.85303 23.3957 8.94653C23.6214 9.04004 23.8634 9.08817 24.1077 9.08817C24.6012 9.08817 25.0745 8.89213 25.4234 8.5432C25.7723 8.19426 25.9684 7.72099 25.9684 7.22752C25.9684 6.73405 25.7723 6.26078 25.4234 5.91185C25.0745 5.56291 24.6012 5.36688 24.1077 5.36688Z" fill="white"/>
</svg>
