<svg width="31" height="31" viewBox="0 0 31 31" fill="none" xmlns="http://www.w3.org/2000/svg">
<path d="M29.2885 0H1.71146C0.765958 0 0 0.765958 0 1.71146V29.2898C0 30.234 0.765958 31 1.71146 31H16.5592V18.9953H12.5188V14.3168H16.5592V10.8668C16.5592 6.86263 19.0043 4.68229 22.577 4.68229C24.2885 4.68229 25.7584 4.81017 26.1873 4.867V9.052L23.7098 9.05329C21.7672 9.05329 21.3913 9.97683 21.3913 11.3305V14.3181H26.0245L25.4213 18.9965H21.3913V31H29.2911C30.234 31 31 30.234 31 29.2885V1.71146C31 0.765958 30.234 0 29.2885 0Z" fill="white"/>
</svg>
